<?xml version="1.0" encoding="UTF-8"?>
<!DOCTYPE svg PUBLIC "-//W3C//DTD SVG 1.1//EN" "http://www.w3.org/Graphics/SVG/1.1/DTD/svg11.dtd">
<!-- Creator: CorelDRAW 2021 (64-Bit) -->
<svg xmlns="http://www.w3.org/2000/svg" xml:space="preserve" width="78px" height="73px" version="1.1" style="shape-rendering:geometricPrecision; text-rendering:geometricPrecision; image-rendering:optimizeQuality; fill-rule:evenodd; clip-rule:evenodd"
viewBox="0 0 80.473 75.186">
 <defs>
  <style type="text/css">
   <![CDATA[
    .str0 {stroke:#783B00;stroke-width:1;stroke-linecap:round;stroke-linejoin:round;stroke-miterlimit:22.9256}
    .fil0 {fill:#970}
   ]]>
  </style>
 </defs>
 <g>
  <path class="fil0 str0" d="M54.379 0.982l-6.81 9.247 -2.447 3.322c-3.143,-0.642 -6.455,-0.673 -9.768,0.004l-2.45 -3.326 -6.811 -9.248c-3.871,1.49 -7.394,3.549 -10.495,6.052l4.607 10.528 1.654 3.782c-2.174,2.464 -3.837,5.345 -4.884,8.46l-4.103 0.458 -11.421 1.275c-0.617,3.937 -0.638,8.016 0.007,12.115l11.415 1.274 4.104 0.459c1.072,3.207 2.754,6.06 4.881,8.462l-1.653 3.779 -4.604 10.522c3.164,2.546 6.706,4.591 10.493,6.057l6.81 -9.247 2.447 -3.321c3.143,0.641 6.455,0.672 9.768,-0.004l2.45 3.326 6.811 9.247c3.871,-1.49 7.394,-3.549 10.495,-6.052l-4.607 -10.528 -1.654 -3.782c2.174,-2.464 3.837,-5.345 4.884,-8.46l4.102 -0.458 11.422 -1.275c0.617,-3.937 0.638,-8.016 -0.007,-12.115l-11.415 -1.274 -4.105 -0.459c-1.071,-3.207 -2.753,-6.059 -4.88,-8.461l1.653 -3.78 4.603 -10.522c-3.163,-2.546 -6.705,-4.591 -10.492,-6.057z"/>
 </g>
</svg>
