<svg xmlns="http://www.w3.org/2000/svg" width="160" height="53" viewBox="0 0 160 53">
  <g id="HyBuys_logo" data-name="HyBuys logo" transform="translate(0 -0.148)">
    <g id="Group_12131" data-name="Group 12131" transform="translate(0 0.148)">
      <path id="Path_9097" data-name="Path 9097" d="M192.892,47.871v.335c0,6.036-4.963,9.591-11,9.591H151.04c-1.61,0-4.7-.738-5.567-2.079-3.89-5.969-6.1-11.872-9.994-17.774a3.527,3.527,0,0,1,0-4.091c3.89-5.969,6.1-11.872,9.994-17.774C146.345,14.738,149.5,14,151.04,14h3.555l-4.427,1.274c-1.744.537-3.957.872-5.366,2.951a5,5,0,0,0-.469.8c-2.079,6.64-2.549,12.878-4.628,19.518a3.662,3.662,0,0,0-.067,2.079,3.915,3.915,0,0,0,1.207,1.744c5.433,4.494,9.122,9.524,14.555,14.018,1.207,1.006,4.427.872,5.969.4Z" transform="translate(-45.955 -4.798)" fill="#383535"/>
      <path id="Path_9098" data-name="Path 9098" d="M199.891,41.9l-4.829,1.339-31.591,8.972c-1.543.4-4.7.6-5.969-.4-5.433-4.553-9.122-9.508-14.555-13.994a3.908,3.908,0,0,1-1.207-1.741A3.65,3.65,0,0,1,141.807,34c2.079-6.629,2.549-12.856,4.628-19.485a2.314,2.314,0,0,1,.469-.8c1.409-2.143,3.622-2.477,5.366-2.946L156.7,9.49,187.617.718c5.835-1.674,11.6.335,13.28,6.026l6.841,23.168C209.55,35.537,205.727,40.224,199.891,41.9Z" transform="translate(-48.192 -0.148)" fill="#ffcd2d"/>
      <circle id="Ellipse_31_25_" cx="2.817" cy="2.817" r="2.817" transform="translate(95.485 30.964)" fill="#383535"/>
      <path id="Path_4003_25_" d="M27.969,29.058h-11.2V13.9H0V57.765H16.768V41.6h11.2V57.765H44.737V13.9H27.969V29.058ZM96.516,13.9H79.077L72.236,32.278h-.268L65.261,13.9H46.95l16.3,30.383V57.765H80.016V44.283L96.516,13.9Z" transform="translate(0 -4.765)" fill="#383535"/>
      <path id="Rectangle_4_20_" d="M130.877,51.706l8.988-2.549a2.076,2.076,0,0,1,2.549,1.409h0a2.076,2.076,0,0,1-1.408,2.549l-8.988,2.549a2.076,2.076,0,0,1-2.549-1.409h0A2.069,2.069,0,0,1,130.877,51.706Z" transform="translate(-43.522 -16.32)" fill="#ffcd2d"/>
    </g>
    <g id="Group_12132" data-name="Group 12132" transform="translate(102.872 15.832)">
      <path id="Path_9099" data-name="Path 9099" d="M169.919,41.043a5.479,5.479,0,0,1-.268,4.561,4.281,4.281,0,0,1-2.549,1.811,3.23,3.23,0,0,1-3.555-1.006h-.067l.469,1.61-4.293,1.207L155.7,35.341,160.328,34l1.61,5.567a3.551,3.551,0,0,1,2.482-2.28,3.929,3.929,0,0,1,3.152.268A6.124,6.124,0,0,1,169.919,41.043Zm-4.963,1.476a3.4,3.4,0,0,0-.537-1.207,1.028,1.028,0,0,0-1.207-.469.957.957,0,0,0-.738,1.006,3.6,3.6,0,0,0,.2,1.341,3.4,3.4,0,0,0,.537,1.207,1.028,1.028,0,0,0,1.207.47.957.957,0,0,0,.738-1.006A3.6,3.6,0,0,0,164.956,42.518Z" transform="translate(-155.7 -27.025)" fill="#383535"/>
      <path id="Path_9100" data-name="Path 9100" d="M190.348,42.058l-4.36,1.207-.469-1.677a3.269,3.269,0,0,1-.6,1.476,3.876,3.876,0,0,1-2.012,1.274,3.617,3.617,0,0,1-2.683-.067,3.385,3.385,0,0,1-1.543-2.079l-1.878-6.64,4.628-1.341,1.543,5.5a2.365,2.365,0,0,0,.335.8.8.8,0,0,0,.872.268.875.875,0,0,0,.6-.671,2.476,2.476,0,0,0-.134-.872l-1.543-5.5,4.628-1.341Z" transform="translate(-162.648 -26.498)" fill="#383535"/>
      <path id="Path_9101" data-name="Path 9101" d="M205.738,27.2l-.4,10.866a6.788,6.788,0,0,1-.8,3.152,4.855,4.855,0,0,1-3.018,2.079,9.518,9.518,0,0,1-1.476.335,13.024,13.024,0,0,1-1.61.134l-.738-2.683a5.587,5.587,0,0,0,1.476-.2,1.441,1.441,0,0,0,.939-.6,1.082,1.082,0,0,0,.2-.6V39.34L194,30.554l4.762-1.341,3.018,5.634-.537-6.372Z" transform="translate(-168.312 -24.785)" fill="#383535"/>
      <path id="Path_9102" data-name="Path 9102" d="M223.733,29.569a2.784,2.784,0,0,1-.335,2.415c-.671,1.073-2.079,1.945-4.158,2.549l-1.811.4a11.547,11.547,0,0,1-2.213.134l-.738-2.616a6.481,6.481,0,0,0,1.61.067,9.708,9.708,0,0,0,2.012-.268c1.14-.335,1.61-.671,1.476-1.14-.067-.268-.4-.4-1.006-.335-.268.067-.6.067-.872.134a7.371,7.371,0,0,1-2.817-.067,2.492,2.492,0,0,1-1.744-1.878,2.767,2.767,0,0,1,.469-2.616,8.57,8.57,0,0,1,4.024-2.213,13.737,13.737,0,0,1,1.61-.335c.537-.067,1.207-.134,1.945-.2l.738,2.549a9.5,9.5,0,0,0-3.152.335,3.647,3.647,0,0,0-1.14.47.549.549,0,0,0-.268.671c.067.335.671.335,1.811.134a7.232,7.232,0,0,1,2.616-.134A2.607,2.607,0,0,1,223.733,29.569Z" transform="translate(-174.569 -23.6)" fill="#383535"/>
    </g>
  </g>
</svg>
