<?xml version="1.0" encoding="UTF-8"?>
<!DOCTYPE svg PUBLIC "-//W3C//DTD SVG 1.1//EN" "http://www.w3.org/Graphics/SVG/1.1/DTD/svg11.dtd">

<svg xmlns="http://www.w3.org/2000/svg" xml:space="preserve" width="100" height="100" version="1.1" style="shape-rendering:geometricPrecision; text-rendering:geometricPrecision; image-rendering:optimizeQuality; fill-rule:evenodd; clip-rule:evenodd"
viewBox="0 0 41223.1 44943"
 xmlns:xlink="http://www.w3.org/1999/xlink">
 <defs>
  <style type="text/css">
   <![CDATA[
    .str0 {stroke:#783B00;stroke-width:105.5;stroke-linecap:round;stroke-linejoin:round;stroke-miterlimit:22.9256}
    .fil1 {fill:none}
    .fil0 {fill:#783B00}
    .fil2 {fill:yellow}
   ]]>
  </style>
 </defs>
 <g>
  <polygon class="fil0 str0" points="22304.5,17472.1 21130.9,19845.9 20611.6,17249.3 20092.3,19845.7 18918.6,17472.1 19089,20114.5 17341,18125.6 18189.6,20633.9 15986.4,19165.1 17455.2,21368.3 14946.9,20519.8 16935.9,22267.7 14293.4,22097.3 16667.1,23270.9 14070.5,23790.3 16667.1,24309.5 14293.4,25483.2 16935.9,25312.7 14946.9,27060.8 17455.2,26212.2 15986.4,28415.4 18189.6,26946.6 17341,29454.9 19089,27465.9 18918.6,30108.4 20092.2,27734.6 20611.5,30331.3 21130.8,27734.6 22304.5,30108.4 22134,27465.8 23882,29454.9 23033.4,26946.5 25236.7,28415.4 23767.8,26212.2 26276.2,27060.8 24287.1,25312.8 26929.7,25483.2 24555.9,24309.6 27152.5,23790.3 24555.9,23271 26929.7,22097.3 24287.1,22267.8 26276.2,20519.8 23767.8,21368.4 25236.7,19165.1 23033.5,20634 23882,18125.6 22134.1,20114.7 "/>
  <path class="fil1 str0" d="M20611.5 36977.9l-3427.7 1979 -5710.3 3296.9 -5710.3 -3296.9 -5710.4 -3296.8 0 -6593.8 0 -6593.8 5710.4 -3296.8 5710.3 -3296.9 5710.3 3296.9 3427.7 1978.9m1055 609.1l1227.7 708.8 0 6593.8 0 6593.8 -1227.7 708.7"/>
  <path class="fil1 str0" d="M20611.6 35759.7l1227.7 -708.8 0 -11969.4 -1227.7 -708.8m-1055 -609.1l-8083.1 -4666.7 -10365.7 5984.6 0 11969.4 10365.7 5984.6 8083.1 -4666.7"/>
  <path class="fil1 str0" d="M32032.3 17196.6l3427.7 1979 5710.4 3296.8 0 6593.8 0 6593.8 -5710.4 3296.8 -5710.3 3296.9 -5710.3 -3296.9 -5710.4 -3296.8 0 -6593.8 0 -3956.3m0 -1218.2l0 -1419.3 5710.4 -3296.8 5710.3 -3296.9 1227.7 708.8"/>
  <path class="fil1 str0" d="M30977.3 17805.7l-1227.7 -708.8 -10365.7 5984.6 0 1419.2m0 1218.2l0 9332 10365.7 5984.6 10365.7 -5984.6 0 -11969.4 -8083.1 -4666.7"/>
  <path class="fil1 str0" d="M9190.8 17196.6l0 -3956.4 0 -6593.8 5710.4 -3296.8 5710.3 -3296.9 5710.3 3296.9 5710.4 3296.8 0 6593.8 0 6593.8 -5710.4 3296.8 -3427.6 1979m-1055 609.1l-1227.7 708.8 -5710.3 -3296.9 -5710.4 -3296.8 0 -1419.2"/>
  <path class="fil1 str0" d="M10245.8 17805.7l0 1419.2 10365.7 5984.6 1227.7 -708.8m1055 -609.1l8083 -4666.7 0 -11969.4 -10365.7 -5984.6 -10365.7 5984.6 0 9332"/>
  <polygon class="fil2 str0" points="1107.8,23081.5 9190.8,18414.8 10245.8,17805.7 11473.5,17096.9 19556.6,21763.6 20611.5,21154.5 17183.8,19175.6 11473.5,15878.7 10245.8,16587.5 9190.8,17196.6 5763.2,19175.6 52.8,22472.4 52.8,29066.2 52.8,35660 5763.2,38956.8 11473.5,42253.7 17183.8,38956.8 20611.5,36977.9 19556.6,36368.8 11473.5,41035.5 1107.8,35050.9 "/>
  <polygon class="fil2 str0" points="9190.8,6646.4 9190.8,13240.3 9190.8,17196.6 10245.8,16587.5 10245.8,7255.6 20611.5,1271 30977.3,7255.6 30977.3,16587.5 30977.3,17805.7 30977.3,19225 22894.2,23891.6 22894.2,25109.9 26321.9,23130.9 32032.3,19834.1 32032.3,18414.8 32032.3,17196.6 32032.3,13240.3 32032.3,6646.4 26321.9,3349.6 20611.5,52.8 14901.2,3349.6 "/>
  <polygon class="fil2 str0" points="32032.3,18414.8 40115.4,23081.5 40115.4,35050.9 29749.6,41035.5 21666.5,36368.8 20611.6,35759.7 19383.9,35050.9 19383.9,25719 18328.9,25109.9 18328.9,29066.2 18328.9,35660 19556.6,36368.8 20611.5,36977.9 24039.3,38956.8 29749.6,42253.7 35460,38956.8 41170.4,35660 41170.4,29066.2 41170.4,22472.4 35460,19175.6 32032.3,17196.6 "/>
  <polygon class="fil2 str0" points="18328.9,23891.7 10245.8,19225 10245.8,17805.7 9190.8,18414.8 9190.8,19834.1 14901.2,23130.9 18328.9,25109.9 19383.9,25719 20611.5,26427.8 21839.2,25719 21839.2,24500.7 20611.5,25209.6 19383.9,24500.7 "/>
  <polygon class="fil2 str0" points="24039.3,19175.6 20611.5,21154.6 19556.6,21763.6 18328.9,22472.4 18328.9,23891.7 19383.9,24500.7 19383.9,23081.5 20611.6,22372.7 21666.6,21763.6 29749.6,17096.9 30977.3,17805.7 30977.3,16587.5 29749.6,15878.7 "/>
  <polygon class="fil2 str0" points="22894.2,22472.4 21666.6,21763.6 20611.6,22372.7 21839.2,23081.5 21839.2,24500.7 21839.2,25719 21839.2,35050.9 20611.6,35759.7 21666.5,36368.8 22894.2,35660 22894.2,29066.2 22894.2,25109.9 22894.2,23891.6 "/>
  <polygon class="fil0 str0" points="20084,27772.4 21139,27772.4 20611.5,44890.3 "/>
  <polygon class="fil0 str0" points="24323.9,22256.1 23796.4,21342.4 38884.7,13240.3 "/>
  <polygon class="fil0 str0" points="17426.7,21342.3 16899.2,22256 2338.4,13240.3 "/>
  <path class="fil0 str0" d="M29717.2 39671.8c-2446.1,2101.9 -5627.6,3372.2 -9105.7,3372.2 -3478.1,0 -6659.5,-1270.3 -9105.6,-3372.2 1832.1,3122.2 5224,5218.4 9105.6,5218.4 3881.6,0 7273.6,-2096.3 9105.7,-5218.5z"/>
  <path class="fil0 str0" d="M29812.6 7963.8c3043.4,1067.4 5734.2,3187.5 7473.2,6199.6 1739.1,3012.1 2229.7,6402.4 1632.5,9571.8 1787.9,-3147.7 1907.2,-7133.3 -33.5,-10494.9 -1940.8,-3361.5 -5452.2,-5251 -9072.1,-5276.5z"/>
  <path class="fil0 str0" d="M2304.9 23735.2c-597.2,-3169.3 -106.6,-6559.7 1632.5,-9571.8 1739,-3012.1 4429.8,-5132.2 7473.1,-6199.6 -3619.9,25.5 -7131.3,1914.9 -9072.1,5276.5 -1940.8,3361.5 -1821.4,7347.3 -33.5,10494.9z"/>
 </g>
</svg>
